<svg width="817" height="85" viewBox="0 0 817 85" fill="none" xmlns="http://www.w3.org/2000/svg">
<g clip-path="url(#clip0_194_5)">
<mask id="path-1-outside-1_194_5" maskUnits="userSpaceOnUse" x="0" y="21" width="737" height="98" fill="black">
<rect fill="white" y="21" width="737" height="98"/>
<path d="M23.952 93.856H54.8V116H1.04V26.4H23.952V93.856ZM92.748 117.792C83.276 117.792 75.212 114.549 68.556 108.064C61.9 101.493 58.572 93.472 58.572 84C58.572 74.528 61.9 66.5493 68.556 60.064C75.212 53.4933 83.276 50.208 92.748 50.208C102.305 50.208 110.369 53.4933 116.94 60.064C123.596 66.5493 126.924 74.528 126.924 84C126.924 93.472 123.596 101.493 116.94 108.064C110.369 114.549 102.305 117.792 92.748 117.792ZM92.748 97.312C96.5027 97.312 99.5747 96.0747 101.964 93.6C104.439 91.1253 105.676 87.9253 105.676 84C105.676 80.0747 104.439 76.8747 101.964 74.4C99.5747 71.9253 96.5027 70.688 92.748 70.688C89.0787 70.688 86.0067 71.9253 83.532 74.4C81.1427 76.8747 79.948 80.0747 79.948 84C79.948 87.9253 81.1427 91.1253 83.532 93.6C86.0067 96.0747 89.0787 97.312 92.748 97.312ZM174.985 52H198.537L174.601 116H151.561L127.625 52H151.177L163.081 88.736L174.985 52ZM246.828 52H268.076V116H246.828V110.112C242.476 115.232 236.417 117.792 228.652 117.792C220.119 117.792 212.951 114.592 207.148 108.192C201.431 101.707 198.572 93.6427 198.572 84C198.572 74.3573 201.431 66.336 207.148 59.936C212.951 53.4507 220.119 50.208 228.652 50.208C236.417 50.208 242.476 52.768 246.828 57.888V52ZM223.66 94.112C226.135 96.672 229.377 97.952 233.388 97.952C237.399 97.952 240.641 96.672 243.116 94.112C245.591 91.552 246.828 88.1813 246.828 84C246.828 79.8187 245.591 76.448 243.116 73.888C240.641 71.328 237.399 70.048 233.388 70.048C229.377 70.048 226.135 71.328 223.66 73.888C221.185 76.448 219.948 79.8187 219.948 84C219.948 88.1813 221.185 91.552 223.66 94.112ZM319.818 50.208C328.351 50.208 335.477 53.4507 341.194 59.936C346.997 66.336 349.898 74.3573 349.898 84C349.898 93.6427 346.997 101.707 341.194 108.192C335.477 114.592 328.351 117.792 319.818 117.792C312.053 117.792 305.994 115.232 301.642 110.112V116H280.394V26.4H301.642V57.888C305.994 52.768 312.053 50.208 319.818 50.208ZM305.354 94.112C307.829 96.672 311.071 97.952 315.082 97.952C319.093 97.952 322.335 96.672 324.81 94.112C327.285 91.552 328.522 88.1813 328.522 84C328.522 79.8187 327.285 76.448 324.81 73.888C322.335 71.328 319.093 70.048 315.082 70.048C311.071 70.048 307.829 71.328 305.354 73.888C302.879 76.448 301.642 79.8187 301.642 84C301.642 88.1813 302.879 91.552 305.354 94.112ZM359.144 116V22.56H380.392V116H359.144ZM411.463 91.808C413.596 97.0133 418.375 99.616 425.799 99.616C430.407 99.616 434.29 98.1227 437.447 95.136L452.807 105.888C446.492 113.824 437.319 117.792 425.287 117.792C414.45 117.792 405.746 114.635 399.175 108.32C392.69 101.92 389.447 93.856 389.447 84.128C389.447 74.4853 392.647 66.4213 399.047 59.936C405.447 53.4507 413.596 50.208 423.495 50.208C433.052 50.208 440.946 53.408 447.175 59.808C453.404 66.208 456.519 74.2293 456.519 83.872C456.519 86.688 456.22 89.3333 455.623 91.808H411.463ZM411.207 77.088H435.783C434.076 71.1147 430.066 68.128 423.751 68.128C417.18 68.128 412.999 71.1147 411.207 77.088ZM489.452 93.856H520.3V116H466.54V26.4H489.452V93.856ZM572.328 52H593.576V116H572.328V110.112C567.976 115.232 561.917 117.792 554.152 117.792C545.619 117.792 538.451 114.592 532.648 108.192C526.931 101.707 524.072 93.6427 524.072 84C524.072 74.3573 526.931 66.336 532.648 59.936C538.451 53.4507 545.619 50.208 554.152 50.208C561.917 50.208 567.976 52.768 572.328 57.888V52ZM549.16 94.112C551.635 96.672 554.877 97.952 558.888 97.952C562.899 97.952 566.141 96.672 568.616 94.112C571.091 91.552 572.328 88.1813 572.328 84C572.328 79.8187 571.091 76.448 568.616 73.888C566.141 71.328 562.899 70.048 558.888 70.048C554.877 70.048 551.635 71.328 549.16 73.888C546.685 76.448 545.448 79.8187 545.448 84C545.448 88.1813 546.685 91.552 549.16 94.112ZM645.318 50.208C653.851 50.208 660.977 53.4507 666.694 59.936C672.497 66.336 675.398 74.3573 675.398 84C675.398 93.6427 672.497 101.707 666.694 108.192C660.977 114.592 653.851 117.792 645.318 117.792C637.553 117.792 631.494 115.232 627.142 110.112V116H605.894V26.4H627.142V57.888C631.494 52.768 637.553 50.208 645.318 50.208ZM630.854 94.112C633.329 96.672 636.571 97.952 640.582 97.952C644.593 97.952 647.835 96.672 650.31 94.112C652.785 91.552 654.022 88.1813 654.022 84C654.022 79.8187 652.785 76.448 650.31 73.888C647.835 71.328 644.593 70.048 640.582 70.048C636.571 70.048 633.329 71.328 630.854 73.888C628.379 76.448 627.142 79.8187 627.142 84C627.142 88.1813 628.379 91.552 630.854 94.112ZM703.496 70.688C703.496 71.8827 704.563 72.864 706.696 73.632C708.915 74.4 711.56 75.1253 714.632 75.808C717.789 76.4907 720.904 77.472 723.976 78.752C727.133 79.9467 729.779 82.0373 731.912 85.024C734.131 88.0107 735.24 91.7653 735.24 96.288C735.24 103.627 732.509 109.045 727.048 112.544C721.587 116.043 715.101 117.792 707.592 117.792C693.256 117.792 683.699 112.715 678.92 102.56L697.48 93.216C699.101 97.9093 702.429 100.256 707.464 100.256C711.304 100.256 713.224 99.104 713.224 96.8C713.224 95.6053 712.157 94.624 710.024 93.856C707.891 93.088 705.288 92.32 702.216 91.552C699.144 90.784 696.072 89.76 693 88.48C689.928 87.2 687.325 85.152 685.192 82.336C683.059 79.4347 681.992 75.8933 681.992 71.712C681.992 64.8853 684.509 59.5947 689.544 55.84C694.579 52.0853 700.637 50.208 707.72 50.208C720.349 50.208 729.139 55.1573 734.088 65.056L716.168 73.12C714.291 69.4507 711.645 67.616 708.232 67.616C705.075 67.616 703.496 68.64 703.496 70.688Z"/>
</mask>
<path d="M23.952 93.856H22.952V94.856H23.952V93.856ZM54.8 93.856H55.8V92.856H54.8V93.856ZM54.8 116V117H55.8V116H54.8ZM1.04 116H0.0400004V117H1.04V116ZM1.04 26.4V25.4H0.0400004V26.4H1.04ZM23.952 26.4H24.952V25.4H23.952V26.4ZM23.952 93.856V94.856H54.8V93.856V92.856H23.952V93.856ZM54.8 93.856H53.8V116H54.8H55.8V93.856H54.8ZM54.8 116V115H1.04V116V117H54.8V116ZM1.04 116H2.04V26.4H1.04H0.0400004V116H1.04ZM1.04 26.4V27.4H23.952V26.4V25.4H1.04V26.4ZM23.952 26.4H22.952V93.856H23.952H24.952V26.4H23.952ZM68.556 108.064L67.8535 108.776L67.8581 108.78L68.556 108.064ZM68.556 60.064L69.2539 60.7802L69.2585 60.7757L68.556 60.064ZM116.94 60.064L116.233 60.7712L116.242 60.7802L116.94 60.064ZM116.94 108.064L117.642 108.776L117.643 108.776L116.94 108.064ZM101.964 93.6L101.257 92.8929L101.251 92.8991L101.245 92.9054L101.964 93.6ZM101.964 74.4L101.245 75.0946L101.251 75.1009L101.257 75.1071L101.964 74.4ZM83.532 74.4L82.8249 73.6929L82.8187 73.6991L82.8126 73.7054L83.532 74.4ZM83.532 93.6L82.8126 94.2946L82.8187 94.3009L82.8249 94.3071L83.532 93.6ZM92.748 117.792V116.792C83.5311 116.792 75.7192 113.647 69.2539 107.348L68.556 108.064L67.8581 108.78C74.7048 115.451 83.0209 118.792 92.748 118.792V117.792ZM68.556 108.064L69.2585 107.352C62.7956 100.972 59.572 93.2084 59.572 84H58.572H57.572C57.572 93.7356 61.0044 102.014 67.8535 108.776L68.556 108.064ZM58.572 84H59.572C59.572 74.7919 62.7952 67.0733 69.2539 60.7802L68.556 60.064L67.8581 59.3478C61.0048 66.0254 57.572 74.2641 57.572 84H58.572ZM68.556 60.064L69.2585 60.7757C75.7247 54.3924 83.5352 51.208 92.748 51.208V50.208V49.208C83.0168 49.208 74.6993 52.5943 67.8535 59.3523L68.556 60.064ZM92.748 50.208V51.208C102.049 51.208 109.856 54.3939 116.233 60.7711L116.94 60.064L117.647 59.3569C110.883 52.5928 102.562 49.208 92.748 49.208V50.208ZM116.94 60.064L116.242 60.7802C122.701 67.0733 125.924 74.7919 125.924 84H126.924H127.924C127.924 74.2641 124.491 66.0254 117.638 59.3478L116.94 60.064ZM126.924 84H125.924C125.924 93.2084 122.7 100.972 116.237 107.352L116.94 108.064L117.643 108.776C124.492 102.014 127.924 93.7356 127.924 84H126.924ZM116.94 108.064L116.238 107.352C109.861 113.646 102.053 116.792 92.748 116.792V117.792V118.792C102.558 118.792 110.877 115.453 117.642 108.776L116.94 108.064ZM92.748 97.312V98.312C96.7465 98.312 100.087 96.9834 102.683 94.2946L101.964 93.6L101.245 92.9054C99.062 95.166 96.2589 96.312 92.748 96.312V97.312ZM101.964 93.6L102.671 94.3071C105.357 91.6214 106.676 88.1553 106.676 84H105.676H104.676C104.676 87.6954 103.52 90.6293 101.257 92.8929L101.964 93.6ZM105.676 84H106.676C106.676 79.8447 105.357 76.3786 102.671 73.6929L101.964 74.4L101.257 75.1071C103.52 77.3707 104.676 80.3046 104.676 84H105.676ZM101.964 74.4L102.683 73.7054C100.087 71.0166 96.7465 69.688 92.748 69.688V70.688V71.688C96.2589 71.688 99.062 72.834 101.245 75.0946L101.964 74.4ZM92.748 70.688V69.688C88.8278 69.688 85.497 71.0208 82.8249 73.6929L83.532 74.4L84.2391 75.1071C86.5164 72.8299 89.3296 71.688 92.748 71.688V70.688ZM83.532 74.4L82.8126 73.7054C80.2176 76.3931 78.948 79.8551 78.948 84H79.948H80.948C80.948 80.2943 82.0678 77.3562 84.2514 75.0946L83.532 74.4ZM79.948 84H78.948C78.948 88.1449 80.2176 91.6069 82.8126 94.2946L83.532 93.6L84.2514 92.9054C82.0678 90.6438 80.948 87.7057 80.948 84H79.948ZM83.532 93.6L82.8249 94.3071C85.497 96.9792 88.8278 98.312 92.748 98.312V97.312V96.312C89.3296 96.312 86.5164 95.1701 84.2391 92.8929L83.532 93.6ZM174.985 52V51H174.258L174.034 51.6917L174.985 52ZM198.537 52L199.474 52.3503L199.979 51H198.537V52ZM174.601 116V117H175.295L175.538 116.35L174.601 116ZM151.561 116L150.624 116.35L150.867 117H151.561V116ZM127.625 52V51H126.183L126.688 52.3503L127.625 52ZM151.177 52L152.128 51.6917L151.904 51H151.177V52ZM163.081 88.736L162.13 89.0443L163.081 91.98L164.032 89.0443L163.081 88.736ZM174.985 52V53H198.537V52V51H174.985V52ZM198.537 52L197.6 51.6497L173.664 115.65L174.601 116L175.538 116.35L199.474 52.3503L198.537 52ZM174.601 116V115H151.561V116V117H174.601V116ZM151.561 116L152.498 115.65L128.562 51.6497L127.625 52L126.688 52.3503L150.624 116.35L151.561 116ZM127.625 52V53H151.177V52V51H127.625V52ZM151.177 52L150.226 52.3083L162.13 89.0443L163.081 88.736L164.032 88.4277L152.128 51.6917L151.177 52ZM163.081 88.736L164.032 89.0443L175.936 52.3083L174.985 52L174.034 51.6917L162.13 88.4277L163.081 88.736ZM246.828 52V51H245.828V52H246.828ZM268.076 52H269.076V51H268.076V52ZM268.076 116V117H269.076V116H268.076ZM246.828 116H245.828V117H246.828V116ZM246.828 110.112H247.828V107.391L246.066 109.464L246.828 110.112ZM207.148 108.192L206.398 108.853L206.407 108.864L207.148 108.192ZM207.148 59.936L206.403 59.2692L206.402 59.2698L207.148 59.936ZM246.828 57.888L246.066 58.5356L247.828 60.6085V57.888H246.828ZM243.116 94.112L242.397 93.417L242.397 93.417L243.116 94.112ZM243.116 73.888L242.397 74.583L242.397 74.583L243.116 73.888ZM246.828 52V53H268.076V52V51H246.828V52ZM268.076 52H267.076V116H268.076H269.076V52H268.076ZM268.076 116V115H246.828V116V117H268.076V116ZM246.828 116H247.828V110.112H246.828H245.828V116H246.828ZM246.828 110.112L246.066 109.464C241.935 114.325 236.175 116.792 228.652 116.792V117.792V118.792C236.66 118.792 243.017 116.139 247.59 110.76L246.828 110.112ZM228.652 117.792V116.792C220.405 116.792 213.505 113.714 207.889 107.52L207.148 108.192L206.407 108.864C212.397 115.47 219.832 118.792 228.652 118.792V117.792ZM207.148 108.192L207.898 107.531C202.361 101.249 199.572 93.4293 199.572 84H198.572H197.572C197.572 93.856 200.501 102.164 206.398 108.853L207.148 108.192ZM198.572 84H199.572C199.572 74.5705 202.361 66.796 207.894 60.6022L207.148 59.936L206.402 59.2698C200.501 65.876 197.572 74.1442 197.572 84H198.572ZM207.148 59.936L207.893 60.6028C213.51 54.3247 220.41 51.208 228.652 51.208V50.208V49.208C219.828 49.208 212.391 52.5766 206.403 59.2692L207.148 59.936ZM228.652 50.208V51.208C236.175 51.208 241.935 53.6752 246.066 58.5356L246.828 57.888L247.59 57.2403C243.017 51.8608 236.66 49.208 228.652 49.208V50.208ZM246.828 57.888H247.828V52H246.828H245.828V57.888H246.828ZM223.66 94.112L222.941 94.807C225.629 97.5874 229.144 98.952 233.388 98.952V97.952V96.952C229.611 96.952 226.641 95.7566 224.379 93.417L223.66 94.112ZM233.388 97.952V98.952C237.632 98.952 241.147 97.5874 243.835 94.807L243.116 94.112L242.397 93.417C240.135 95.7566 237.165 96.952 233.388 96.952V97.952ZM243.116 94.112L243.835 94.807C246.521 92.0284 247.828 88.3922 247.828 84H246.828H245.828C245.828 87.9705 244.66 91.0756 242.397 93.417L243.116 94.112ZM246.828 84H247.828C247.828 79.6078 246.521 75.9716 243.835 73.193L243.116 73.888L242.397 74.583C244.66 76.9244 245.828 80.0295 245.828 84H246.828ZM243.116 73.888L243.835 73.193C241.147 70.4126 237.632 69.048 233.388 69.048V70.048V71.048C237.165 71.048 240.135 72.2434 242.397 74.583L243.116 73.888ZM233.388 70.048V69.048C229.144 69.048 225.629 70.4126 222.941 73.193L223.66 73.888L224.379 74.583C226.641 72.2434 229.611 71.048 233.388 71.048V70.048ZM223.66 73.888L222.941 73.193C220.255 75.9716 218.948 79.6078 218.948 84H219.948H220.948C220.948 80.0295 222.116 76.9244 224.379 74.583L223.66 73.888ZM219.948 84H218.948C218.948 88.3922 220.255 92.0284 222.941 94.807L223.66 94.112L224.379 93.417C222.116 91.0756 220.948 87.9705 220.948 84H219.948ZM341.194 59.936L340.444 60.5974L340.453 60.6077L341.194 59.936ZM341.194 108.192L340.449 107.525L340.448 107.526L341.194 108.192ZM301.642 110.112L302.404 109.464L300.642 107.391V110.112H301.642ZM301.642 116V117H302.642V116H301.642ZM280.394 116H279.394V117H280.394V116ZM280.394 26.4V25.4H279.394V26.4H280.394ZM301.642 26.4H302.642V25.4H301.642V26.4ZM301.642 57.888H300.642V60.6085L302.404 58.5356L301.642 57.888ZM324.81 94.112L324.091 93.417L324.091 93.417L324.81 94.112ZM324.81 73.888L324.091 74.583L324.091 74.583L324.81 73.888ZM319.818 50.208V51.208C328.06 51.208 334.914 54.324 340.444 60.5973L341.194 59.936L341.944 59.2747C336.04 52.5773 328.643 49.208 319.818 49.208V50.208ZM341.194 59.936L340.453 60.6077C346.069 66.8019 348.898 74.5745 348.898 84H349.898H350.898C350.898 74.1401 347.924 65.8701 341.935 59.2643L341.194 59.936ZM349.898 84H348.898C348.898 93.4253 346.069 101.244 340.449 107.525L341.194 108.192L341.939 108.859C347.924 102.17 350.898 93.86 350.898 84H349.898ZM341.194 108.192L340.448 107.526C334.919 113.715 328.065 116.792 319.818 116.792V117.792V118.792C328.638 118.792 336.034 115.469 341.94 108.858L341.194 108.192ZM319.818 117.792V116.792C312.295 116.792 306.535 114.325 302.404 109.464L301.642 110.112L300.88 110.76C305.453 116.139 311.81 118.792 319.818 118.792V117.792ZM301.642 110.112H300.642V116H301.642H302.642V110.112H301.642ZM301.642 116V115H280.394V116V117H301.642V116ZM280.394 116H281.394V26.4H280.394H279.394V116H280.394ZM280.394 26.4V27.4H301.642V26.4V25.4H280.394V26.4ZM301.642 26.4H300.642V57.888H301.642H302.642V26.4H301.642ZM301.642 57.888L302.404 58.5356C306.535 53.6752 312.295 51.208 319.818 51.208V50.208V49.208C311.81 49.208 305.453 51.8608 300.88 57.2403L301.642 57.888ZM305.354 94.112L304.635 94.807C307.323 97.5874 310.838 98.952 315.082 98.952V97.952V96.952C311.305 96.952 308.335 95.7566 306.073 93.417L305.354 94.112ZM315.082 97.952V98.952C319.326 98.952 322.841 97.5874 325.529 94.807L324.81 94.112L324.091 93.417C321.829 95.7566 318.859 96.952 315.082 96.952V97.952ZM324.81 94.112L325.529 94.807C328.215 92.0284 329.522 88.3922 329.522 84H328.522H327.522C327.522 87.9705 326.354 91.0756 324.091 93.417L324.81 94.112ZM328.522 84H329.522C329.522 79.6078 328.215 75.9716 325.529 73.193L324.81 73.888L324.091 74.583C326.354 76.9244 327.522 80.0295 327.522 84H328.522ZM324.81 73.888L325.529 73.193C322.841 70.4126 319.326 69.048 315.082 69.048V70.048V71.048C318.859 71.048 321.829 72.2434 324.091 74.583L324.81 73.888ZM315.082 70.048V69.048C310.838 69.048 307.323 70.4126 304.635 73.193L305.354 73.888L306.073 74.583C308.335 72.2434 311.305 71.048 315.082 71.048V70.048ZM305.354 73.888L304.635 73.193C301.949 75.9716 300.642 79.6078 300.642 84H301.642H302.642C302.642 80.0295 303.81 76.9244 306.073 74.583L305.354 73.888ZM301.642 84H300.642C300.642 88.3922 301.949 92.0284 304.635 94.807L305.354 94.112L306.073 93.417C303.81 91.0756 302.642 87.9705 302.642 84H301.642ZM359.144 116H358.144V117H359.144V116ZM359.144 22.56V21.56H358.144V22.56H359.144ZM380.392 22.56H381.392V21.56H380.392V22.56ZM380.392 116V117H381.392V116H380.392ZM359.144 116H360.144V22.56H359.144H358.144V116H359.144ZM359.144 22.56V23.56H380.392V22.56V21.56H359.144V22.56ZM380.392 22.56H379.392V116H380.392H381.392V22.56H380.392ZM380.392 116V115H359.144V116V117H380.392V116ZM411.463 91.808V90.808H409.972L410.538 92.1872L411.463 91.808ZM437.447 95.136L438.02 94.3168L437.352 93.8491L436.76 94.4095L437.447 95.136ZM452.807 105.888L453.59 106.511L454.252 105.679L453.38 105.069L452.807 105.888ZM399.175 108.32L398.473 109.032L398.482 109.041L399.175 108.32ZM399.047 59.936L398.335 59.2336L398.335 59.2336L399.047 59.936ZM447.175 59.808L446.458 60.5055L447.175 59.808ZM455.623 91.808V92.808H456.41L456.595 92.0426L455.623 91.808ZM411.207 77.088L410.249 76.8006L409.863 78.088H411.207V77.088ZM435.783 77.088V78.088H437.109L436.745 76.8133L435.783 77.088ZM411.463 91.808L410.538 92.1872C411.688 94.9949 413.57 97.1269 416.169 98.5422C418.749 99.9473 421.978 100.616 425.799 100.616V99.616V98.616C422.196 98.616 419.324 97.9834 417.125 96.7858C414.945 95.5984 413.371 93.8265 412.388 91.4288L411.463 91.808ZM425.799 99.616V100.616C430.646 100.616 434.779 99.0361 438.134 95.8625L437.447 95.136L436.76 94.4095C433.8 97.2092 430.168 98.616 425.799 98.616V99.616ZM437.447 95.136L436.874 95.9552L452.234 106.707L452.807 105.888L453.38 105.069L438.02 94.3168L437.447 95.136ZM452.807 105.888L452.024 105.265C445.936 112.917 437.078 116.792 425.287 116.792V117.792V118.792C437.56 118.792 447.049 114.731 453.59 106.511L452.807 105.888ZM425.287 117.792V116.792C414.656 116.792 406.218 113.702 399.868 107.599L399.175 108.32L398.482 109.041C405.273 115.568 414.243 118.792 425.287 118.792V117.792ZM399.175 108.32L399.877 107.608C393.596 101.41 390.447 93.6086 390.447 84.128H389.447H388.447C388.447 94.1034 391.783 102.43 398.473 109.032L399.175 108.32ZM389.447 84.128H390.447C390.447 74.7313 393.555 66.9248 399.759 60.6384L399.047 59.936L398.335 59.2336C391.739 65.9178 388.447 74.2394 388.447 84.128H389.447ZM399.047 59.936L399.759 60.6384C405.954 54.3609 413.838 51.208 423.495 51.208V50.208V49.208C413.354 49.208 404.94 52.5404 398.335 59.2336L399.047 59.936ZM423.495 50.208V51.208C432.803 51.208 440.432 54.3135 446.458 60.5055L447.175 59.808L447.892 59.1105C441.46 52.5025 433.301 49.208 423.495 49.208V50.208ZM447.175 59.808L446.458 60.5055C452.491 66.703 455.519 74.467 455.519 83.872H456.519H457.519C457.519 73.9916 454.318 65.713 447.892 59.1105L447.175 59.808ZM456.519 83.872H455.519C455.519 86.6172 455.228 89.1832 454.651 91.5734L455.623 91.808L456.595 92.0426C457.213 89.4835 457.519 86.7588 457.519 83.872H456.519ZM455.623 91.808V90.808H411.463V91.808V92.808H455.623V91.808ZM411.207 77.088V78.088H435.783V77.088V76.088H411.207V77.088ZM435.783 77.088L436.745 76.8133C435.846 73.6678 434.313 71.2194 432.092 69.566C429.874 67.9137 427.066 67.128 423.751 67.128V68.128V69.128C426.75 69.128 429.106 69.8356 430.898 71.17C432.688 72.5033 434.014 74.5349 434.821 77.3627L435.783 77.088ZM423.751 68.128V67.128C420.315 67.128 417.408 67.9099 415.106 69.5543C412.799 71.2022 411.195 73.6483 410.249 76.8006L411.207 77.088L412.165 77.3753C413.011 74.5544 414.394 72.5205 416.268 71.1817C418.147 69.8395 420.616 69.128 423.751 69.128V68.128ZM489.452 93.856H488.452V94.856H489.452V93.856ZM520.3 93.856H521.3V92.856H520.3V93.856ZM520.3 116V117H521.3V116H520.3ZM466.54 116H465.54V117H466.54V116ZM466.54 26.4V25.4H465.54V26.4H466.54ZM489.452 26.4H490.452V25.4H489.452V26.4ZM489.452 93.856V94.856H520.3V93.856V92.856H489.452V93.856ZM520.3 93.856H519.3V116H520.3H521.3V93.856H520.3ZM520.3 116V115H466.54V116V117H520.3V116ZM466.54 116H467.54V26.4H466.54H465.54V116H466.54ZM466.54 26.4V27.4H489.452V26.4V25.4H466.54V26.4ZM489.452 26.4H488.452V93.856H489.452H490.452V26.4H489.452ZM572.328 52V51H571.328V52H572.328ZM593.576 52H594.576V51H593.576V52ZM593.576 116V117H594.576V116H593.576ZM572.328 116H571.328V117H572.328V116ZM572.328 110.112H573.328V107.391L571.566 109.464L572.328 110.112ZM532.648 108.192L531.898 108.853L531.907 108.864L532.648 108.192ZM532.648 59.936L531.903 59.2692L531.902 59.2698L532.648 59.936ZM572.328 57.888L571.566 58.5356L573.328 60.6085V57.888H572.328ZM568.616 94.112L567.897 93.417L567.897 93.417L568.616 94.112ZM568.616 73.888L567.897 74.583L567.897 74.583L568.616 73.888ZM572.328 52V53H593.576V52V51H572.328V52ZM593.576 52H592.576V116H593.576H594.576V52H593.576ZM593.576 116V115H572.328V116V117H593.576V116ZM572.328 116H573.328V110.112H572.328H571.328V116H572.328ZM572.328 110.112L571.566 109.464C567.435 114.325 561.675 116.792 554.152 116.792V117.792V118.792C562.16 118.792 568.517 116.139 573.09 110.76L572.328 110.112ZM554.152 117.792V116.792C545.905 116.792 539.005 113.714 533.389 107.52L532.648 108.192L531.907 108.864C537.897 115.47 545.332 118.792 554.152 118.792V117.792ZM532.648 108.192L533.398 107.531C527.861 101.249 525.072 93.4293 525.072 84H524.072H523.072C523.072 93.856 526.001 102.164 531.898 108.853L532.648 108.192ZM524.072 84H525.072C525.072 74.5705 527.861 66.796 533.394 60.6022L532.648 59.936L531.902 59.2698C526.001 65.876 523.072 74.1442 523.072 84H524.072ZM532.648 59.936L533.393 60.6028C539.01 54.3247 545.91 51.208 554.152 51.208V50.208V49.208C545.328 49.208 537.891 52.5766 531.903 59.2692L532.648 59.936ZM554.152 50.208V51.208C561.675 51.208 567.435 53.6752 571.566 58.5356L572.328 57.888L573.09 57.2403C568.517 51.8608 562.16 49.208 554.152 49.208V50.208ZM572.328 57.888H573.328V52H572.328H571.328V57.888H572.328ZM549.16 94.112L548.441 94.807C551.129 97.5874 554.644 98.952 558.888 98.952V97.952V96.952C555.111 96.952 552.141 95.7566 549.879 93.417L549.16 94.112ZM558.888 97.952V98.952C563.132 98.952 566.647 97.5874 569.335 94.807L568.616 94.112L567.897 93.417C565.635 95.7566 562.665 96.952 558.888 96.952V97.952ZM568.616 94.112L569.335 94.807C572.021 92.0284 573.328 88.3922 573.328 84H572.328H571.328C571.328 87.9705 570.16 91.0756 567.897 93.417L568.616 94.112ZM572.328 84H573.328C573.328 79.6078 572.021 75.9716 569.335 73.193L568.616 73.888L567.897 74.583C570.16 76.9244 571.328 80.0295 571.328 84H572.328ZM568.616 73.888L569.335 73.193C566.647 70.4126 563.132 69.048 558.888 69.048V70.048V71.048C562.665 71.048 565.635 72.2434 567.897 74.583L568.616 73.888ZM558.888 70.048V69.048C554.644 69.048 551.129 70.4126 548.441 73.193L549.16 73.888L549.879 74.583C552.141 72.2434 555.111 71.048 558.888 71.048V70.048ZM549.16 73.888L548.441 73.193C545.755 75.9716 544.448 79.6078 544.448 84H545.448H546.448C546.448 80.0295 547.616 76.9244 549.879 74.583L549.16 73.888ZM545.448 84H544.448C544.448 88.3922 545.755 92.0284 548.441 94.807L549.16 94.112L549.879 93.417C547.616 91.0756 546.448 87.9705 546.448 84H545.448ZM666.694 59.936L665.944 60.5974L665.953 60.6077L666.694 59.936ZM666.694 108.192L665.949 107.525L665.948 107.526L666.694 108.192ZM627.142 110.112L627.904 109.464L626.142 107.391V110.112H627.142ZM627.142 116V117H628.142V116H627.142ZM605.894 116H604.894V117H605.894V116ZM605.894 26.4V25.4H604.894V26.4H605.894ZM627.142 26.4H628.142V25.4H627.142V26.4ZM627.142 57.888H626.142V60.6085L627.904 58.5356L627.142 57.888ZM650.31 94.112L649.591 93.417L649.591 93.417L650.31 94.112ZM650.31 73.888L649.591 74.583L649.591 74.583L650.31 73.888ZM645.318 50.208V51.208C653.56 51.208 660.414 54.324 665.944 60.5973L666.694 59.936L667.444 59.2747C661.54 52.5773 654.143 49.208 645.318 49.208V50.208ZM666.694 59.936L665.953 60.6077C671.569 66.8019 674.398 74.5745 674.398 84H675.398H676.398C676.398 74.1401 673.424 65.8701 667.435 59.2643L666.694 59.936ZM675.398 84H674.398C674.398 93.4253 671.569 101.244 665.949 107.525L666.694 108.192L667.439 108.859C673.424 102.17 676.398 93.86 676.398 84H675.398ZM666.694 108.192L665.948 107.526C660.419 113.715 653.565 116.792 645.318 116.792V117.792V118.792C654.138 118.792 661.534 115.469 667.44 108.858L666.694 108.192ZM645.318 117.792V116.792C637.795 116.792 632.035 114.325 627.904 109.464L627.142 110.112L626.38 110.76C630.953 116.139 637.31 118.792 645.318 118.792V117.792ZM627.142 110.112H626.142V116H627.142H628.142V110.112H627.142ZM627.142 116V115H605.894V116V117H627.142V116ZM605.894 116H606.894V26.4H605.894H604.894V116H605.894ZM605.894 26.4V27.4H627.142V26.4V25.4H605.894V26.4ZM627.142 26.4H626.142V57.888H627.142H628.142V26.4H627.142ZM627.142 57.888L627.904 58.5356C632.035 53.6752 637.795 51.208 645.318 51.208V50.208V49.208C637.31 49.208 630.953 51.8608 626.38 57.2403L627.142 57.888ZM630.854 94.112L630.135 94.807C632.823 97.5874 636.338 98.952 640.582 98.952V97.952V96.952C636.805 96.952 633.835 95.7566 631.573 93.417L630.854 94.112ZM640.582 97.952V98.952C644.826 98.952 648.341 97.5874 651.029 94.807L650.31 94.112L649.591 93.417C647.329 95.7566 644.359 96.952 640.582 96.952V97.952ZM650.31 94.112L651.029 94.807C653.715 92.0284 655.022 88.3922 655.022 84H654.022H653.022C653.022 87.9705 651.854 91.0756 649.591 93.417L650.31 94.112ZM654.022 84H655.022C655.022 79.6078 653.715 75.9716 651.029 73.193L650.31 73.888L649.591 74.583C651.854 76.9244 653.022 80.0295 653.022 84H654.022ZM650.31 73.888L651.029 73.193C648.341 70.4126 644.826 69.048 640.582 69.048V70.048V71.048C644.359 71.048 647.329 72.2434 649.591 74.583L650.31 73.888ZM640.582 70.048V69.048C636.338 69.048 632.823 70.4126 630.135 73.193L630.854 73.888L631.573 74.583C633.835 72.2434 636.805 71.048 640.582 71.048V70.048ZM630.854 73.888L630.135 73.193C627.449 75.9716 626.142 79.6078 626.142 84H627.142H628.142C628.142 80.0295 629.31 76.9244 631.573 74.583L630.854 73.888ZM627.142 84H626.142C626.142 88.3922 627.449 92.0284 630.135 94.807L630.854 94.112L631.573 93.417C629.31 91.0756 628.142 87.9705 628.142 84H627.142ZM706.696 73.632L706.357 74.573L706.369 74.577L706.696 73.632ZM714.632 75.808L714.415 76.7842L714.421 76.7854L714.632 75.808ZM723.976 78.752L723.591 79.6751L723.607 79.6814L723.622 79.6873L723.976 78.752ZM731.912 85.024L731.098 85.6052L731.104 85.6128L731.109 85.6203L731.912 85.024ZM727.048 112.544L727.587 113.386L727.587 113.386L727.048 112.544ZM678.92 102.56L678.47 101.667L677.601 102.105L678.015 102.986L678.92 102.56ZM697.48 93.216L698.425 92.8895L698.052 91.8086L697.03 92.3228L697.48 93.216ZM702.216 91.552L702.459 90.5819L702.459 90.5819L702.216 91.552ZM693 88.48L692.615 89.4031L692.615 89.4031L693 88.48ZM685.192 82.336L684.386 82.9284L684.391 82.9342L684.395 82.9399L685.192 82.336ZM689.544 55.84L688.946 55.0384L688.946 55.0384L689.544 55.84ZM734.088 65.056L734.498 65.9679L735.448 65.5405L734.982 64.6088L734.088 65.056ZM716.168 73.12L715.278 73.5755L715.711 74.4222L716.578 74.0319L716.168 73.12ZM703.496 70.688H702.496C702.496 71.6236 702.927 72.4196 703.619 73.0559C704.29 73.6731 705.228 74.1665 706.357 74.5729L706.696 73.632L707.035 72.6911C706.03 72.3295 705.369 71.9482 704.973 71.5841C704.598 71.2391 704.496 70.9471 704.496 70.688H703.496ZM706.696 73.632L706.369 74.577C708.633 75.3609 711.317 76.0958 714.415 76.7842L714.632 75.808L714.849 74.8318C711.803 74.1548 709.196 73.4391 707.023 72.687L706.696 73.632ZM714.632 75.808L714.421 76.7854C717.517 77.4549 720.574 78.4177 723.591 79.6751L723.976 78.752L724.361 77.8289C721.234 76.5263 718.062 75.5265 714.843 74.8306L714.632 75.808ZM723.976 78.752L723.622 79.6873C726.578 80.8059 729.069 82.7648 731.098 85.6052L731.912 85.024L732.726 84.4428C730.488 81.3099 727.688 79.0875 724.33 77.8167L723.976 78.752ZM731.912 85.024L731.109 85.6203C733.174 88.4001 734.24 91.9328 734.24 96.288H735.24H736.24C736.24 91.5979 735.087 87.6213 732.715 84.4277L731.912 85.024ZM735.24 96.288H734.24C734.24 103.339 731.641 108.414 726.509 111.702L727.048 112.544L727.587 113.386C733.378 109.677 736.24 103.915 736.24 96.288H735.24ZM727.048 112.544L726.509 111.702C721.232 115.082 714.941 116.792 707.592 116.792V117.792V118.792C715.262 118.792 721.941 117.003 727.587 113.386L727.048 112.544ZM707.592 117.792V116.792C700.536 116.792 694.736 115.542 690.141 113.101C685.561 110.668 682.126 107.024 679.825 102.134L678.92 102.56L678.015 102.986C680.493 108.251 684.226 112.223 689.203 114.867C694.165 117.503 700.312 118.792 707.592 118.792V117.792ZM678.92 102.56L679.37 103.453L697.93 94.1092L697.48 93.216L697.03 92.3228L678.47 101.667L678.92 102.56ZM697.48 93.216L696.535 93.5425C697.399 96.0431 698.746 97.9946 700.616 99.3133C702.485 100.631 704.79 101.256 707.464 101.256V100.256V99.256C705.104 99.256 703.227 98.7076 701.768 97.6787C700.31 96.6507 699.183 95.0822 698.425 92.8895L697.48 93.216ZM707.464 100.256V101.256C709.451 101.256 711.108 100.964 712.298 100.249C713.57 99.4864 714.224 98.2908 714.224 96.8H713.224H712.224C712.224 97.6132 711.918 98.1456 711.27 98.5345C710.54 98.9723 709.317 99.256 707.464 99.256V100.256ZM713.224 96.8H714.224C714.224 95.8644 713.793 95.0684 713.101 94.4321C712.43 93.8149 711.492 93.3215 710.363 92.9151L710.024 93.856L709.685 94.7969C710.69 95.1585 711.351 95.5398 711.747 95.9039C712.122 96.2489 712.224 96.5409 712.224 96.8H713.224ZM710.024 93.856L710.363 92.9151C708.188 92.1323 705.551 91.3551 702.459 90.5819L702.216 91.552L701.973 92.5221C705.025 93.2849 707.593 94.0437 709.685 94.7969L710.024 93.856ZM702.216 91.552L702.459 90.5819C699.437 89.8266 696.413 88.8187 693.385 87.5569L693 88.48L692.615 89.4031C695.731 90.7013 698.851 91.7414 701.973 92.5221L702.216 91.552ZM693 88.48L693.385 87.5569C690.486 86.3492 688.022 84.4161 685.989 81.7321L685.192 82.336L684.395 82.9399C686.628 85.8879 689.37 88.0508 692.615 89.4031L693 88.48ZM685.192 82.336L685.998 81.7436C684.01 79.0406 682.992 75.7158 682.992 71.712H681.992H680.992C680.992 76.0709 682.107 79.8287 684.386 82.9284L685.192 82.336ZM681.992 71.712H682.992C682.992 65.1692 685.385 60.1893 690.142 56.6416L689.544 55.84L688.946 55.0384C683.634 59 680.992 64.6014 680.992 71.712H681.992ZM689.544 55.84L690.142 56.6416C694.982 53.032 700.824 51.208 707.72 51.208V50.208V49.208C700.451 49.208 694.175 51.1387 688.946 55.0384L689.544 55.84ZM707.72 50.208V51.208C713.905 51.208 719.082 52.4198 723.293 54.7913C727.497 57.1586 730.799 60.7143 733.194 65.5032L734.088 65.056L734.982 64.6088C732.428 59.4991 728.86 55.6307 724.275 53.0486C719.697 50.4709 714.164 49.208 707.72 49.208V50.208ZM734.088 65.056L733.678 64.1441L715.758 72.2081L716.168 73.12L716.578 74.0319L734.498 65.9679L734.088 65.056ZM716.168 73.12L717.058 72.6645C715.053 68.7446 712.106 66.616 708.232 66.616V67.616V68.616C711.184 68.616 713.529 70.1567 715.278 73.5755L716.168 73.12ZM708.232 67.616V66.616C706.577 66.616 705.163 66.8785 704.136 67.545C703.034 68.26 702.496 69.3608 702.496 70.688H703.496H704.496C704.496 69.9672 704.748 69.532 705.224 69.223C705.775 68.8654 706.729 68.616 708.232 68.616V67.616Z" fill="url(#paint0_linear_194_5)" mask="url(#path-1-outside-1_194_5)"/>
</g>
<defs>
<linearGradient id="paint0_linear_194_5" x1="353" y1="81" x2="352" y2="29" gradientUnits="userSpaceOnUse">
<stop stop-color="#D2D2D2" stop-opacity="0.61"/>
<stop offset="0.913462" stop-color="#A684FF" stop-opacity="0.89"/>
<stop offset="1" stop-color="#8E51FF"/>
</linearGradient>
<clipPath id="clip0_194_5">
<rect width="817" height="85" fill="white"/>
</clipPath>
</defs>
</svg>
